<svg width="100" height="100" viewBox="0 0 100 100" fill="none" xmlns="http://www.w3.org/2000/svg">
<g clip-path="url(#clip0_205_9)">
<g clip-path="url(#clip1_205_9)">
<rect x="0.5" y="0.5" width="100" height="100" rx="10" fill="#7E22CE"/>
<path d="M32.8125 59.2969V56.1719H25V49.9219H40.625V43.6719H28.125C27.2396 43.6719 26.4969 43.3729 25.8969 42.775C25.299 42.175 25 41.4323 25 40.5469V28.0469C25 27.1615 25.299 26.4188 25.8969 25.8188C26.4969 25.2208 27.2396 24.9219 28.125 24.9219H32.8125V21.7969H39.0625V24.9219H46.875V31.1719H31.25V37.4219H43.75C44.6354 37.4219 45.3781 37.7208 45.9781 38.3188C46.576 38.9188 46.875 39.6615 46.875 40.5469V53.0469C46.875 53.9323 46.576 54.675 45.9781 55.275C45.3781 55.8729 44.6354 56.1719 43.75 56.1719H39.0625V59.2969H32.8125ZM56.0937 78.0469L42.8125 64.7656L47.1875 60.3906L56.0937 69.2969L73.75 51.6406L78.125 56.0156L56.0937 78.0469Z" fill="white"/>
</g>
<path d="M80.825 84L82.3 82.525C82.5 82.325 82.6 82.0917 82.6 81.825C82.6 81.5583 82.5 81.325 82.3 81.125C82.1 80.925 81.8627 80.825 81.588 80.825C81.3127 80.825 81.075 80.925 80.875 81.125L78.7 83.3C78.6 83.4 78.5293 83.5083 78.488 83.625C78.446 83.7417 78.425 83.8667 78.425 84C78.425 84.1333 78.446 84.2583 78.488 84.375C78.5293 84.4917 78.6 84.6 78.7 84.7L80.875 86.875C81.075 87.075 81.3127 87.175 81.588 87.175C81.8627 87.175 82.1 87.075 82.3 86.875C82.5 86.675 82.6 86.4417 82.6 86.175C82.6 85.9083 82.5 85.675 82.3 85.475L80.825 84ZM87.175 84L85.7 85.475C85.5 85.675 85.4 85.9083 85.4 86.175C85.4 86.4417 85.5 86.675 85.7 86.875C85.9 87.075 86.1377 87.175 86.413 87.175C86.6877 87.175 86.925 87.075 87.125 86.875L89.3 84.7C89.4 84.6 89.4707 84.4917 89.512 84.375C89.554 84.2583 89.575 84.1333 89.575 84C89.575 83.8667 89.554 83.7417 89.512 83.625C89.4707 83.5083 89.4 83.4 89.3 83.3L87.125 81.125C87.025 81.025 86.9127 80.95 86.788 80.9C86.6627 80.85 86.5377 80.825 86.413 80.825C86.2877 80.825 86.1627 80.85 86.038 80.9C85.9127 80.95 85.8 81.025 85.7 81.125C85.5 81.325 85.4 81.5583 85.4 81.825C85.4 82.0917 85.5 82.325 85.7 82.525L87.175 84ZM77 93C76.45 93 75.979 92.8043 75.587 92.413C75.1957 92.021 75 91.55 75 91V77C75 76.45 75.1957 75.979 75.587 75.587C75.979 75.1957 76.45 75 77 75H91C91.55 75 92.021 75.1957 92.413 75.587C92.8043 75.979 93 76.45 93 77V91C93 91.55 92.8043 92.021 92.413 92.413C92.021 92.8043 91.55 93 91 93H77Z" fill="#F5D0FE"/>
</g>
<defs>
<clipPath id="clip0_205_9">
<rect width="100" height="100" fill="white"/>
</clipPath>
<clipPath id="clip1_205_9">
<rect width="100" height="100" fill="white"/>
</clipPath>
</defs>
</svg>
